{"title":"1492-Conquest of Paradise-AC3-5,1-DVDRip[Eng]1992","uid":4987490,"size":1825838384,"categoryP":"video","categoryS":"movies","magnet":"?xt=urn:btih:a13f8e71106aeea4cd9d1d3dc0f1c02e89934c11&amp;dn=1492-Conquest+of+Paradise-AC3-5%2C1-DVDRip%5BEng%5D1992&amp;tr=udp%3A%2F%2Ftracker.openbittorrent.com%3A80&amp;tr=udp%3A%2F%2Fopen.demonii.com%3A1337&amp;tr=udp%3A%2F%2Ftracker.coppersurfer.tk%3A6969&amp;tr=udp%3A%2F%2Fexodus.desync.com%3A6969","seeders":8,"leechers":2,"uploader":"FatFreddy31","files":4,"time":1246824569,"description":" &lt;a href=&quot;http://www.imdb.com/title/tt0103594/&quot; rel=&quot;nofollow&quot; target=&quot;_NEW&quot;&gt;http://www.imdb.com/title/tt0103594/&lt;/a&gt;\n\nUser Rating:6.2/10 - 8,828 votes\n\nAdventure,Biography,Drama,History\n\nDirector:Ridley Scott\n\nCast:GÃƒÂ©rard Depardieu/Armand Assante/Sigourney Weaver, and others.\n\nPlot:\nBig budget account of Christopher Columbus' discovery of the Americas. Released in 1992 to celebrate the 500th anniversary of the discovery. Shows the disastrous effects the Europeans had on the original inhabitants, and Columbus' struggle to civilize the New World...\n\nInfo:\n\nCover included.\n\nGeneral\nComplete name                    : 1492-Conquest of Paradise-AC3-5,1-DVDRip[Eng]1992.avi\nFormat                           : AVI\nFormat/Info                      : Audio Video Interleave\nFile size                        : 1.70 GiB\nDuration                         : 2h 29mn\nOverall bit rate                 : 1 629 Kbps\nWriting application              : VirtualDubMod 1.5.4.1 (build 2178/release)\nWriting library                  : VirtualDubMod build 2178/release\n\nVideo\nFormat                           : MPEG-4 Visual\nFormat profile                   : Streaming Video@L1\nFormat settings, BVOP            : Yes\nFormat settings, QPel            : No\nFormat settings, GMC             : No warppoints\nFormat settings, Matrix          : Default\nMuxing mode                      : Packed bitstream\nCodec ID                         : XVID\nCodec ID/Hint                    : XviD\nDuration                         : 2h 29mn\nBit rate                         : 1 174 Kbps\nWidth                            : 720 pixels\nHeight                           : 304 pixels\nDisplay aspect ratio             : 2.35\nFrame rate                       : 25.000 fps\nResolution                       : 24 bits\nColorimetry                      : 4:2:0\nScan type                        : Progressive\nBits/(Pixel*Frame)               : 0.215\nStream size                      : 1.22 GiB (72%)\nWriting library                  : XviD 50\n\nAudio\nFormat                           : AC-3\nFormat/Info                      : Audio Coding 3\nCodec ID                         : 2000\nDuration                         : 2h 29mn\nBit rate mode                    : Constant\nBit rate                         : 448 Kbps\nChannel(s)                       : 6 channels\nChannel positions                : Front: L C R, Surround: L R, LFE\nSampling rate                    : 48.0 KHz\nStream size                      : 478 MiB (27%)\nAlignment                        : Split accross interleaves\nInterleave, duration             : 80 ms (2.00 video frames)\nInterleave, preload duration     : 500 ms\nLanguage                         : English\n\nEnjoy...","torrent":{"xt":"urn:btih:a13f8e71106aeea4cd9d1d3dc0f1c02e89934c11","amp;dn":"1492-Conquest+of+Paradise-AC3-5%2C1-DVDRip%5BEng%5D1992","amp;tr":["udp%3A%2F%2Ftracker.openbittorrent.com%3A80","udp%3A%2F%2Fopen.demonii.com%3A1337","udp%3A%2F%2Ftracker.coppersurfer.tk%3A6969","udp%3A%2F%2Fexodus.desync.com%3A6969"],"infoHash":"a13f8e71106aeea4cd9d1d3dc0f1c02e89934c11","infoHashBuffer":{"type":"Buffer","data":[161,63,142,113,16,106,238,164,205,157,29,61,192,241,192,46,137,147,76,17]},"announce":[],"urlList":[]}}